HIERARCHY
ROOT Hips
{
	OFFSET 0.00000 0.00000 0.00000
	CHANNELS 6 Xposition Yposition Zposition Zrotation Yrotation Xrotation 
	JOINT LHipJoint
	{
		OFFSET 0 0 0
		CHANNELS 3 Zrotation Yrotation Xrotation
		JOINT LeftUpLeg
		{
			OFFSET 1.24777 -1.64261 0.71711
			CHANNELS 3 Zrotation Yrotation Xrotation
			JOINT LeftLeg
			{
				OFFSET 2.49329 -6.85026 0.00000
				CHANNELS 3 Zrotation Yrotation Xrotation
				JOINT LeftFoot
				{
					OFFSET 2.36770 -6.50520 0.00000
					CHANNELS 3 Zrotation Yrotation Xrotation
					JOINT LeftToeBase
					{
						OFFSET 0.14820 -0.40718 2.21395
						CHANNELS 3 Zrotation Yrotation Xrotation
						End Site
						{
							OFFSET 0.00000 -0.00000 1.13491
						}
					}
				}
			}
		}
	}
	JOINT RHipJoint
	{
		OFFSET 0 0 0
		CHANNELS 3 Zrotation Yrotation Xrotation
		JOINT RightUpLeg
		{
			OFFSET -1.18320 -1.64261 0.71711
			CHANNELS 3 Zrotation Yrotation Xrotation
			JOINT RightLeg
			{
				OFFSET -2.46559 -6.77417 0.00000
				CHANNELS 3 Zrotation Yrotation Xrotation
				JOINT RightFoot
				{
					OFFSET -2.38450 -6.55136 0.00000
					CHANNELS 3 Zrotation Yrotation Xrotation
					JOINT RightToeBase
					{
						OFFSET -0.17454 -0.47954 2.02925
						CHANNELS 3 Zrotation Yrotation Xrotation
						End Site
						{
							OFFSET -0.00000 -0.00000 1.05076
						}
					}
				}
			}
		}
	}
	JOINT LowerBack
	{
		OFFSET 0 0 0
		CHANNELS 3 Zrotation Yrotation Xrotation
		JOINT Spine
		{
			OFFSET -0.02305 1.98660 0.00319
			CHANNELS 3 Zrotation Yrotation Xrotation
			JOINT Spine1
			{
				OFFSET -0.00718 1.99033 -0.00533
				CHANNELS 3 Zrotation Yrotation Xrotation
				JOINT Neck
				{
					OFFSET 0 0 0
					CHANNELS 3 Zrotation Yrotation Xrotation
					JOINT Neck1
					{
						OFFSET 0.00095 1.61015 0.10698
						CHANNELS 3 Zrotation Yrotation Xrotation
						JOINT Head
						{
							OFFSET -0.01060 1.59924 0.01317
							CHANNELS 3 Zrotation Yrotation Xrotation
							End Site
							{
								OFFSET -0.00458 1.63304 -0.00592
							}
						}
					}
				}
				JOINT LeftShoulder
				{
					OFFSET 0 0 0
					CHANNELS 3 Zrotation Yrotation Xrotation
					JOINT LeftArm
					{
						OFFSET 3.05381 1.47088 -0.01697
						CHANNELS 3 Zrotation Yrotation Xrotation
						JOINT LeftForeArm
						{
							OFFSET 4.25106 -0.00000 0.00000
							CHANNELS 3 Zrotation Yrotation Xrotation
							JOINT LeftHand
							{
								OFFSET 3.27592 -0.00000 0.00000
								CHANNELS 3 Zrotation Yrotation Xrotation
								JOINT LeftFingerBase
								{
									OFFSET 0 0 0
									CHANNELS 3 Zrotation Yrotation Xrotation
									JOINT LeftHandIndex1
									{
										OFFSET 0.65781 -0.00000 0.00000
										CHANNELS 3 Zrotation Yrotation Xrotation
										End Site
										{
											OFFSET 0.53034 -0.00000 0.00000
										}
									}
								}
								JOINT LThumb
								{
									OFFSET 0 0 0
									CHANNELS 3 Zrotation Yrotation Xrotation
									End Site
									{
										OFFSET 0.53844 -0.00000 0.53844
									}
								}
							}
						}
					}
				}
				JOINT RightShoulder
				{
					OFFSET 0 0 0
					CHANNELS 3 Zrotation Yrotation Xrotation
					JOINT RightArm
					{
						OFFSET -2.83695 1.31619 -0.22674
						CHANNELS 3 Zrotation Yrotation Xrotation
						JOINT RightForeArm
						{
							OFFSET -4.46073 -0.00000 0.00000
							CHANNELS 3 Zrotation Yrotation Xrotation
							JOINT RightHand
							{
								OFFSET -3.44416 -0.00000 0.00000
								CHANNELS 3 Zrotation Yrotation Xrotation
								JOINT RightFingerBase
								{
									OFFSET 0 0 0
									CHANNELS 3 Zrotation Yrotation Xrotation
									JOINT RightHandIndex1
									{
										OFFSET -0.61651 -0.00000 0.00000
										CHANNELS 3 Zrotation Yrotation Xrotation
										End Site
										{
											OFFSET -0.49705 -0.00000 0.00000
										}
									}
								}
								JOINT RThumb
								{
									OFFSET 0 0 0
									CHANNELS 3 Zrotation Yrotation Xrotation
									End Site
									{
										OFFSET -0.50464 -0.00000 0.50464
									}
								}
							}
						}
					}
				}
			}
		}
	}
}
MOTION
Frames: 8
Frame Time: .0083333
19.5177 16.3759 5.9914 -9.3087 -6.0788 8.0802 0.0000 0.0000 0.0000 -8.5343 -0.3167 -45.4538 4.0232 12.1912 36.4118 -0.6540 15.8386 -13.5177 5.4848 13.9097 42.8771 0.0000 0.0000 0.0000 18.0848 0.5260 -18.7238 -9.9462 -17.3795 59.3085 0.9702 22.9257 24.9123 -1.6161 -8.0160 22.7627 2.0849 1.8158 4.2398 3.5202 2.5563 1.1658 2.3142 1.2726 -1.2478 6.1159 1.9448 -9.9712 -5.5461 2.5692 15.8920 -2.5711 1.1498 6.6252 -0.0000 0.0000 0.0000 -92.4103 25.5434 30.6531 37.8089 -46.7168 -16.8263 -0.0000 0.0000 -11.3717 2.7033 12.3781 0.5799 -7.1250 0.0000 -0.0000 -21.6432 41.3295 2.0685 -0.0000 0.0000 0.0000 61.4969 12.4179 12.9279 -36.2546 45.6875 -15.7044 0.0000 0.0000 10.6474 -59.8866 -18.3782 28.5288 7.1250 -0.0000 -0.0000 -39.2667 -58.8883 14.7421
19.5682 16.3916 6.0983 -8.7298 -6.4438 8.2976 0.0000 0.0000 0.0000 -8.8826 -1.3152 -44.9993 4.0706 12.2538 36.6357 -0.6248 15.7955 -14.0245 5.5870 14.0158 43.3006 0.0000 0.0000 0.0000 16.5975 2.4850 -20.9925 -10.8052 -17.8384 62.1472 0.0802 21.2838 29.4759 -1.9043 -8.6639 24.7496 1.5286 1.9686 4.6490 3.3459 2.7435 1.2937 2.4236 1.3666 -1.3674 6.1230 1.9985 -10.0616 -5.8401 2.6764 15.5949 -2.6551 1.1768 6.5563 0.0000 0.0000 0.0000 -91.7178 25.8150 30.8217 40.6904 -48.4737 -18.9545 -0.0000 0.0000 -10.2253 2.0674 12.2579 0.4391 -7.1250 0.0000 -0.0000 -22.1364 41.1583 2.2205 0.0000 0.0000 0.0000 62.8118 12.3197 11.8236 -38.4217 47.1065 -17.2739 0.0000 0.0000 9.9410 -68.4198 -21.1141 42.3256 7.1250 -0.0000 -0.0000 -63.6495 -65.0532 37.2585
19.6138 16.4059 6.2012 -8.0733 -6.8440 8.4505 0.0000 0.0000 0.0000 -9.3385 -2.2289 -44.5158 4.1121 12.3081 36.8307 -0.5804 15.6245 -14.4823 5.6656 14.0963 43.6244 0.0000 0.0000 0.0000 15.0137 4.6775 -23.2015 -11.6364 -18.2327 64.8317 -0.7538 19.8096 33.0798 -2.0679 -9.0062 25.8146 0.8899 2.1604 5.1078 3.1224 2.9724 1.4607 2.5229 1.4814 -1.4797 6.1221 2.0334 -10.1171 -6.0654 2.7436 15.1887 -2.7182 1.1909 6.4437 0.0000 -0.0000 0.0000 -90.7813 26.0658 31.0587 43.9416 -50.2393 -21.4220 -0.0000 0.0000 -8.7171 2.1650 11.5811 0.4348 -7.1250 0.0000 -0.0000 -21.8312 40.5396 2.5399 0.0000 -0.0000 0.0000 64.0906 11.9529 11.0249 -40.8689 48.5764 -19.0883 0.0000 0.0000 9.6623 -76.2631 -24.0584 59.0511 7.1250 -0.0000 -0.0000 -99.4448 -66.0269 74.3752
19.6547 16.4192 6.3016 -7.3686 -7.2413 8.5360 0.0000 0.0000 0.0000 -9.8822 -3.0594 -44.0003 4.1467 12.3531 36.9927 -0.5317 15.3922 -14.8548 5.7137 14.1450 43.8216 0.0000 0.0000 0.0000 13.3704 7.0299 -25.3342 -12.4211 -18.5630 67.3174 -1.4116 18.6314 35.6070 -2.0901 -9.0513 25.9559 0.2116 2.3808 5.6054 2.8514 3.2295 1.6559 2.5900 1.6099 -1.5879 6.1215 2.0492 -10.1236 -6.2037 2.7686 14.7066 -2.7564 1.1929 6.2954 0.0000 0.0000 0.0000 -89.6054 26.2835 31.3002 47.5636 -51.9643 -24.2416 -0.0000 0.0000 -6.9477 3.2808 10.3090 0.5877 -7.1250 0.0000 -0.0000 -20.5093 39.4489 2.9514 0.0000 0.0000 0.0000 65.3655 11.3491 10.4997 -43.5472 50.0366 -21.1193 0.0000 0.0000 9.5198 -81.6178 -25.9769 71.4066 7.1250 -0.0000 -0.0000 -99.7172 65.8262 -126.8090
19.6912 16.4324 6.4006 -6.6497 -7.5824 8.5639 0.0000 0.0000 0.0000 -10.4785 -3.8366 -43.4520 4.1749 12.3895 37.1242 -0.4829 15.1496 -15.1911 5.7461 14.1777 43.9540 0.0000 0.0000 0.0000 11.7139 9.4615 -27.3904 -13.1425 -18.8330 69.5674 -1.8308 17.7592 37.0177 -1.9947 -8.8551 25.3430 -0.4681 2.6032 6.1250 2.5504 3.4809 1.8697 2.6235 1.7349 -1.6896 6.1139 2.0528 -10.0877 -6.2571 2.7643 14.1921 -2.7687 1.1881 6.1270 -0.0000 0.0000 0.0000 -88.2370 26.4463 31.4379 51.5449 -53.5999 -27.4128 -0.0000 0.0000 -5.0356 5.5487 8.5363 0.8262 -7.1250 0.0000 -0.0000 -18.1475 37.9469 3.2818 -0.0000 0.0000 0.0000 66.6455 10.5828 10.2677 -46.3644 51.4197 -23.3006 0.0000 0.0000 9.2371 -83.0187 -27.0646 74.9368 7.1250 -0.0000 -0.0000 -107.7730 65.3559 -135.0620
19.7239 16.4454 6.4994 -5.9503 -7.8164 8.5534 0.0000 0.0000 0.0000 -11.1022 -4.5780 -42.8953 4.1983 12.4198 37.2336 -0.4410 14.9509 -15.4931 5.7551 14.1867 43.9906 0.0000 0.0000 0.0000 10.0857 11.8920 -29.3845 -13.7879 -19.0484 71.5556 -2.0119 17.1114 37.3838 -1.8360 -8.5157 24.2917 -1.1209 2.7928 6.6412 2.2513 3.6820 2.1001 2.6457 1.8339 -1.7703 6.0703 2.0637 -10.0403 -6.2420 2.7659 13.6903 -2.7529 1.1897 5.9603 0.0000 0.0000 0.0000 -86.7858 26.5134 31.3147 55.8462 -55.0974 -30.9088 -0.0000 0.0000 -3.0900 9.0013 6.3831 1.0089 -7.1250 0.0000 -0.0000 -14.8225 36.0900 3.3382 0.0000 0.0000 0.0000 67.9019 9.7530 10.4004 -49.2594 52.6924 -25.5839 0.0000 0.0000 8.5493 -80.8714 -27.6590 70.9066 7.1250 -0.0000 -0.0000 -101.9818 66.7555 -127.7457
19.7534 16.4581 6.5986 -5.3099 -7.8963 8.5282 0.0000 0.0000 0.0000 -11.7285 -5.2865 -42.2933 4.1885 12.4072 37.1880 -0.4160 14.8488 -15.7007 5.7477 14.1794 43.9607 0.0000 0.0000 0.0000 8.5340 14.2477 -31.3241 -14.3250 -19.2097 73.1947 -2.0134 16.5106 36.8850 -1.6709 -8.1440 23.1525 -1.6884 2.9355 7.1324 1.9652 3.8200 2.3302 2.6380 1.9005 -1.8301 6.0097 2.0771 -9.9620 -6.1879 2.7707 13.2245 -2.7223 1.1954 5.7997 0.0000 -0.0000 0.0000 -85.2796 26.4544 30.8693 60.3783 -56.4099 -34.6561 -0.0000 0.0000 -1.2482 13.4581 4.0265 0.9627 -7.1250 0.0000 -0.0000 -10.7900 33.9672 2.9647 0.0000 -0.0000 0.0000 69.1419 8.8889 10.8465 -52.1714 53.8346 -27.9178 0.0000 0.0000 7.4779 -76.4744 -27.7489 62.6768 7.1250 -0.0000 -0.0000 -86.9029 68.2522 -110.1343
19.7800 16.4703 6.6987 -4.7640 -7.7785 8.5070 0.0000 0.0000 0.0000 -12.3031 -5.9865 -41.7275 4.1792 12.3951 37.1444 -0.3977 14.7887 -15.8792 5.7196 14.1510 43.8456 0.0000 0.0000 0.0000 7.0998 16.4746 -33.2305 -14.7645 -19.3297 74.5262 -1.8839 15.8448 35.6430 -1.5094 -7.7592 21.9851 -2.1244 3.0111 7.5868 1.7098 3.8741 2.5551 2.5969 1.9245 -1.8634 5.9330 2.0958 -9.8666 -6.1265 2.7878 12.8185 -2.6865 1.2070 5.6557 0.0000 -0.0000 0.0000 -83.7698 26.2282 30.0251 65.0498 -57.5119 -38.5730 -0.0000 -0.0000 0.3646 18.5766 1.6434 0.5522 -7.1250 0.0000 -0.0000 -6.4093 31.6729 2.1009 0.0000 -0.0000 0.0000 70.3532 8.0363 11.5630 -54.9638 54.8113 -30.1864 0.0000 0.0000 6.2516 -71.3222 -27.3955 53.6959 7.1250 -0.0000 -0.0000 -89.8175 -69.5995 67.9721
